<?xml version="1.0" standalone="no"?>
<!DOCTYPE svg PUBLIC "-//W3C//DTD SVG 20010904//EN"
 "http://www.w3.org/TR/2001/REC-SVG-20010904/DTD/svg10.dtd">
<svg version="1.0" xmlns="http://www.w3.org/2000/svg"
 width="500.000000pt" height="500.000000pt" viewBox="0 0 500.000000 500.000000"
 preserveAspectRatio="xMidYMid meet">
<metadata>
Created by potrace 1.14, written by Peter Selinger 2001-2017
</metadata>
<g transform="translate(0.000000,500.000000) scale(0.100000,-0.100000)"
fill="#000000" stroke="none">
<path d="M0 2500 l0 -2500 2500 0 2500 0 0 2500 0 2500 -2500 0 -2500 0 0
-2500z m2655 1275 c115 -24 227 -86 315 -174 82 -83 125 -155 160 -266 30 -99
30 -262 0 -360 -99 -319 -419 -509 -742 -440 -37 7 -108 35 -158 60 -259 134
-393 435 -320 719 83 327 412 531 745 461z m-705 -15 c0 -19 -7 -20 -230 -20
l-230 0 0 -230 c0 -223 -1 -230 -20 -230 -19 0 -20 7 -20 250 l0 250 250 0
c243 0 250 -1 250 -20z m1660 -230 c0 -243 -1 -250 -20 -250 -19 0 -20 7 -20
230 l0 230 -230 0 c-223 0 -230 1 -230 20 0 19 7 20 250 20 l250 0 0 -250z
m-2120 -740 l0 -230 230 0 c223 0 230 -1 230 -20 0 -19 -7 -20 -250 -20 l-250
0 0 250 c0 243 1 250 20 250 19 0 20 -7 20 -230z m2110 -20 l0 -250 -250 0
c-243 0 -250 1 -250 20 0 19 7 20 230 20 l230 0 0 230 c0 223 1 230 20 230 19
0 20 -7 20 -250z m-723 -604 c7 -54 -4 -58 -34 -12 -37 58 -117 56 -148 -5
-20 -37 -19 -122 1 -160 28 -56 108 -70 153 -27 30 28 48 12 20 -18 -62 -66
-181 -45 -220 39 -36 81 -12 189 50 221 35 19 112 21 129 4 9 -9 13 -7 18 6
10 27 26 4 31 -48z m-647 43 c0 -6 -9 -13 -20 -16 -19 -5 -20 -14 -20 -119 0
-103 -2 -115 -23 -140 -44 -50 -153 -28 -145 30 2 15 12 22 31 24 25 3 28 1
25 -25 -2 -22 1 -29 19 -31 39 -6 53 31 53 145 0 101 -1 104 -25 113 -45 17
-27 30 40 30 40 0 65 -4 65 -11z m304 -24 c10 -50 -3 -63 -25 -26 -16 27 -24
31 -64 31 l-45 0 0 -60 0 -60 36 0 c27 0 37 5 41 20 10 39 23 19 23 -35 0 -54
-13 -74 -23 -35 -4 15 -14 20 -41 20 l-36 0 0 -50 c0 -45 3 -50 25 -56 46 -12
26 -24 -40 -24 -63 0 -85 12 -45 25 19 6 20 15 20 130 0 114 -1 123 -20 128
-11 3 -20 10 -20 16 0 7 35 11 104 11 l104 0 6 -35z m-1343 -560 c0 -48 -2
-90 -5 -93 -3 -3 -6 39 -6 93 0 54 2 96 5 93 3 -3 6 -45 6 -93z m226 -47 c-2
-29 -3 -8 -3 47 0 55 1 79 3 53 2 -26 2 -71 0 -100z m113 47 c0 -57 -4 -95
-10 -95 -11 0 -14 172 -3 183 12 13 13 7 13 -88z m440 91 c0 -2 -7 -7 -16 -10
-8 -3 -12 -2 -9 4 6 10 25 14 25 6z m58 -93 c-1 -101 -5 -89 -10 30 -2 37 0
67 5 67 4 0 6 -44 5 -97z m77 87 c3 -6 -1 -7 -9 -4 -18 7 -21 14 -7 14 6 0 13
-4 16 -10z m705 -91 c0 -53 -4 -89 -10 -89 -6 0 -10 39 -10 96 0 61 4 93 10
89 6 -3 10 -46 10 -96z m344 -77 c5 -8 0 -12 -14 -12 -12 0 -19 4 -16 9 3 5
-5 44 -18 87 -13 44 -21 83 -18 88 3 5 17 -28 32 -75 14 -47 30 -90 34 -97z
m146 83 c0 -57 -4 -95 -10 -95 -6 0 -10 38 -10 95 0 57 4 95 10 95 6 0 10 -38
10 -95z m230 -6 c0 -53 -4 -89 -10 -89 -6 0 -10 39 -10 96 0 61 4 93 10 89 6
-3 10 -46 10 -96z m97 -41 c-2 -29 -3 -8 -3 47 0 55 1 79 3 53 2 -26 2 -71 0
-100z m176 89 c19 -37 27 -66 26 -97 l-2 -45 -6 45 c-4 25 -19 66 -34 91 -28
48 -32 59 -19 59 4 0 19 -24 35 -53z m-2523 6 c0 -18 -28 -53 -42 -53 -4 0 1
9 13 21 19 19 19 22 4 45 -16 25 -16 25 4 14 12 -6 21 -18 21 -27z m416 15
c-24 -40 -27 -73 -7 -111 22 -43 20 -46 -9 -15 -27 29 -27 87 1 122 25 32 35
34 15 4z m124 -27 c15 -36 8 -70 -20 -102 l-21 -24 16 32 c21 44 19 85 -7 118
-21 27 -21 27 -1 17 11 -6 26 -25 33 -41z m441 23 c-25 -32 -27 -74 -5 -117
l17 -32 -21 19 c-48 42 -31 141 26 155 2 1 -6 -11 -17 -25z m129 -63 c0 -27
-7 -44 -25 -61 l-24 -23 19 39 c25 47 25 51 0 99 l-20 40 25 -28 c17 -19 25
-40 25 -66z m155 59 c-23 -45 -19 -97 10 -125 13 -14 20 -25 15 -25 -4 0 -20
14 -34 31 -32 38 -34 86 -5 123 27 34 33 33 14 -4z m355 -21 c0 -4 -9 -14 -21
-22 l-20 -15 20 -41 c12 -22 21 -43 21 -46 0 -15 -22 10 -41 46 l-20 40 23 18
c20 17 21 22 10 47 l-12 29 20 -24 c11 -13 20 -27 20 -32z m468 39 c18 -18 14
-56 -7 -68 -30 -15 -38 -12 -13 6 26 18 28 37 6 58 -8 9 -12 16 -7 16 5 0 14
-5 21 -12z m-708 -8 c0 -5 -2 -10 -4 -10 -3 0 -8 5 -11 10 -3 6 -1 10 4 10 6
0 11 -4 11 -10z m0 -114 c0 -31 -23 -56 -38 -41 -3 3 0 5 6 5 7 0 12 15 12 35
0 19 5 35 10 35 6 0 10 -15 10 -34z"/>
<path d="M2373 3715 c-192 -52 -348 -208 -407 -405 -21 -71 -22 -225 -1 -304
42 -159 158 -297 310 -371 221 -105 480 -61 654 113 180 182 222 442 106 673
-72 142 -232 267 -383 298 -72 15 -216 13 -279 -4z m341 -138 c145 -69 239
-191 267 -348 25 -142 -24 -293 -129 -398 -160 -161 -400 -186 -582 -63 -107
73 -165 153 -195 269 -63 242 71 484 313 564 44 15 79 18 154 16 86 -3 104 -8
172 -40z"/>
<path d="M2377 3536 c-109 -46 -168 -100 -220 -202 -100 -197 -11 -451 193
-547 129 -61 304 -44 415 41 243 185 210 555 -62 693 -61 31 -76 34 -167 37
-88 2 -108 -1 -159 -22z m260 -77 c112 -43 201 -158 206 -269 2 -53 1 -55 -23
-55 -22 0 -25 5 -32 53 -10 65 -36 117 -80 159 -38 37 -111 72 -150 73 -14 0
-33 3 -42 6 -16 6 -22 35 -9 47 13 13 73 7 130 -14z"/>
</g>
</svg>
